<?xml version="1.0" encoding="UTF-8"?>
<svg width="256" height="256" viewBox="0 0 256 256" fill="none" xmlns="http://www.w3.org/2000/svg">
  <defs>
    <!-- 主要渐变 -->
    <linearGradient id="primaryGradient" x1="0%" y1="0%" x2="100%" y2="100%">
      <stop offset="0%" style="stop-color:#3B82F6;stop-opacity:1" />
      <stop offset="50%" style="stop-color:#6366F1;stop-opacity:1" />
      <stop offset="100%" style="stop-color:#8B5CF6;stop-opacity:1" />
    </linearGradient>
    
    <!-- 背景圆圈渐变 -->
    <radialGradient id="bgGradient" cx="50%" cy="30%" r="70%">
      <stop offset="0%" style="stop-color:#F0F9FF;stop-opacity:0.8" />
      <stop offset="100%" style="stop-color:#DBEAFE;stop-opacity:0.3" />
    </radialGradient>
    
    <!-- 网络连接线渐变 -->
    <linearGradient id="lineGradient" x1="0%" y1="0%" x2="100%" y2="0%">
      <stop offset="0%" style="stop-color:#10B981;stop-opacity:0.8" />
      <stop offset="100%" style="stop-color:#34D399;stop-opacity:1" />
    </linearGradient>
    
    <!-- 阴影 -->
    <filter id="shadow" x="-20%" y="-20%" width="140%" height="140%">
      <feDropShadow dx="0" dy="4" stdDeviation="8" flood-color="#000000" flood-opacity="0.1"/>
    </filter>
  </defs>
  
  <!-- 背景圆圈 -->
  <circle cx="128" cy="128" r="120" fill="url(#bgGradient)" filter="url(#shadow)"/>
  
  <!-- 主要图标容器 -->
  <g transform="translate(128, 128)">
    
    <!-- 中心监控器/雷达 -->
    <circle cx="0" cy="0" r="32" fill="url(#primaryGradient)" opacity="0.9"/>
    <circle cx="0" cy="0" r="24" fill="none" stroke="white" stroke-width="2" opacity="0.8"/>
    <circle cx="0" cy="0" r="16" fill="none" stroke="white" stroke-width="1.5" opacity="0.6"/>
    <circle cx="0" cy="0" r="8" fill="white" opacity="0.9"/>
    
    <!-- 雷达扫描线 -->
    <g opacity="0.7">
      <line x1="0" y1="0" x2="0" y2="-28" stroke="white" stroke-width="2" stroke-linecap="round"/>
      <animateTransform attributeName="transform" type="rotate" values="0;360" dur="3s" repeatCount="indefinite"/>
    </g>
    
    <!-- 网络节点 -->
    <!-- 上方节点 -->
    <circle cx="0" cy="-60" r="6" fill="url(#primaryGradient)"/>
    <circle cx="-42" cy="-42" r="5" fill="url(#primaryGradient)"/>
    <circle cx="42" cy="-42" r="5" fill="url(#primaryGradient)"/>
    
    <!-- 侧方节点 -->
    <circle cx="-60" cy="0" r="6" fill="url(#primaryGradient)"/>
    <circle cx="60" cy="0" r="6" fill="url(#primaryGradient)"/>
    
    <!-- 下方节点 -->
    <circle cx="-42" cy="42" r="5" fill="url(#primaryGradient)"/>
    <circle cx="42" cy="42" r="5" fill="url(#primaryGradient)"/>
    <circle cx="0" cy="60" r="6" fill="url(#primaryGradient)"/>
    
    <!-- 连接线 -->
    <g stroke="url(#lineGradient)" stroke-width="2" opacity="0.6">
      <!-- 到上方节点的连接 -->
      <line x1="0" y1="-32" x2="0" y2="-54"/>
      <line x1="-22" y1="-22" x2="-37" y2="-37"/>
      <line x1="22" y1="-22" x2="37" y2="-37"/>
      
      <!-- 到侧方节点的连接 -->
      <line x1="-32" y1="0" x2="-54" y2="0"/>
      <line x1="32" y1="0" x2="54" y2="0"/>
      
      <!-- 到下方节点的连接 -->
      <line x1="-22" y1="22" x2="-37" y2="37"/>
      <line x1="22" y1="22" x2="37" y2="37"/>
      <line x1="0" y1="32" x2="0" y2="54"/>
    </g>
    
    <!-- 数据流动效果 -->
    <g opacity="0.8">
      <!-- 流动的数据包 -->
      <circle r="2" fill="#10B981">
        <animateMotion dur="2s" repeatCount="indefinite" path="M 0,-32 L 0,-54"/>
      </circle>
      <circle r="2" fill="#34D399">
        <animateMotion dur="2.5s" repeatCount="indefinite" path="M 32,0 L 54,0"/>
      </circle>
      <circle r="2" fill="#10B981">
        <animateMotion dur="2.2s" repeatCount="indefinite" path="M -32,0 L -54,0"/>
      </circle>
    </g>
    
    <!-- 外围光晕效果 -->
    <circle cx="0" cy="0" r="45" fill="none" stroke="url(#primaryGradient)" stroke-width="1" opacity="0.3">
      <animate attributeName="r" values="45;50;45" dur="2s" repeatCount="indefinite"/>
      <animate attributeName="opacity" values="0.3;0.1;0.3" dur="2s" repeatCount="indefinite"/>
    </circle>
    
  </g>
  
  <!-- 底部装饰性文字指示器 -->
  <g transform="translate(128, 200)" opacity="0.6">
    <rect x="-20" y="-3" width="40" height="6" rx="3" fill="url(#primaryGradient)"/>
    <text x="0" y="12" text-anchor="middle" font-family="Arial, sans-serif" font-size="10" font-weight="bold" fill="url(#primaryGradient)">NET</text>
  </g>
  
</svg>
